<svg xmlns="http://www.w3.org/2000/svg" viewBox="0 0 1200 630" font-family="Verdana, 'Trebuchet MS', sans-serif">
  <defs>
    <linearGradient id="bg" x1="0" y1="0" x2="0" y2="1">
      <stop offset="0" stop-color="#0a0e22"/>
      <stop offset="0.55" stop-color="#101430"/>
      <stop offset="1" stop-color="#1c1138"/>
    </linearGradient>
    <linearGradient id="title" x1="0" y1="0" x2="0" y2="1">
      <stop offset="0" stop-color="#ffe7a8"/>
      <stop offset="1" stop-color="#f0a23a"/>
    </linearGradient>
    <radialGradient id="glow" cx="50%" cy="40%" r="60%">
      <stop offset="0" stop-color="#5a73b4" stop-opacity="0.45"/>
      <stop offset="1" stop-color="#5a73b4" stop-opacity="0"/>
    </radialGradient>
    <filter id="shadow" x="-20%" y="-20%" width="140%" height="140%">
      <feDropShadow dx="0" dy="4" stdDeviation="4" flood-color="#000" flood-opacity="0.55"/>
    </filter>
    <pattern id="grid" width="40" height="40" patternUnits="userSpaceOnUse">
      <path d="M40 0 H0 V40" fill="none" stroke="#2a3158" stroke-width="1" opacity="0.35"/>
    </pattern>
    <symbol id="ore" viewBox="-20 -20 40 40">
      <polygon points="0,-16 14,-6 11,12 -11,12 -14,-6" fill="currentColor" stroke="#0b0f24" stroke-width="2" stroke-linejoin="round"/>
      <polygon points="0,-16 14,-6 0,-2 -14,-6" fill="#fff" fill-opacity="0.22"/>
    </symbol>
  </defs>

  <rect width="1200" height="630" fill="url(#bg)"/>
  <rect width="1200" height="630" fill="url(#grid)"/>
  <rect width="1200" height="630" fill="url(#glow)"/>

  <!-- Frame -->
  <rect x="24" y="24" width="1152" height="582" rx="14" fill="none" stroke="#5a73b4" stroke-width="2" opacity="0.55"/>
  <rect x="32" y="32" width="1136" height="566" rx="10" fill="none" stroke="#5a73b4" stroke-width="1" opacity="0.25"/>

  <!-- Decorative ore cluster (left) -->
  <g filter="url(#shadow)">
    <use href="#ore" x="160" y="200" width="80" height="80" color="#c0843a"/>
    <use href="#ore" x="105" y="270" width="60" height="60" color="#6e87b6"/>
    <use href="#ore" x="200" y="305" width="56" height="56" color="#e8d35a"/>
    <use href="#ore" x="135" y="370" width="72" height="72" color="#7fd6c8"/>
    <use href="#ore" x="220" y="430" width="64" height="64" color="#b94a4a"/>
    <use href="#ore" x="80"  y="430" width="52" height="52" color="#a560c8"/>
  </g>

  <!-- Decorative ore cluster (right) -->
  <g filter="url(#shadow)">
    <use href="#ore" x="985"  y="180" width="74" height="74" color="#e2eaf2"/>
    <use href="#ore" x="1055" y="245" width="60" height="60" color="#3aa3c0"/>
    <use href="#ore" x="945"  y="280" width="58" height="58" color="#d04848"/>
    <use href="#ore" x="1020" y="345" width="80" height="80" color="#ff8a3a"/>
    <use href="#ore" x="940"  y="420" width="56" height="56" color="#6e87b6"/>
    <use href="#ore" x="1015" y="455" width="64" height="64" color="#7ad36a"/>
  </g>

  <!-- Title block -->
  <g text-anchor="middle" filter="url(#shadow)">
    <text x="600" y="190" font-size="44" font-weight="700" letter-spacing="14" fill="#9cb4ff">TERRARIA · tMODLOADER</text>
    <text x="600" y="305" font-size="124" font-weight="900" letter-spacing="4" fill="url(#title)" stroke="#3a1d05" stroke-width="3" paint-order="stroke fill">WORLD CONFIG</text>
    <text x="600" y="360" font-size="30" font-weight="600" fill="#d8e2ff" letter-spacing="3">Resize your world. Tune every ore.</text>
  </g>

  <!-- Custom ON badge (matches in-game green indicator) -->
  <g filter="url(#shadow)">
    <rect x="888" y="388" width="168" height="36" rx="18" fill="#143d28" stroke="#7ad36a" stroke-width="2"/>
    <circle cx="912" cy="406" r="6" fill="#7ad36a"/>
    <text x="928" y="412" font-size="17" font-weight="700" fill="#b8f0c8" letter-spacing="2">CUSTOM ON</text>
  </g>

  <!-- Slider mock -->
  <g transform="translate(300,430)">
    <rect x="0" y="0" width="600" height="120" rx="14" fill="#161a36" stroke="#5a73b4" stroke-width="1.5" opacity="0.95"/>

    <text x="22" y="34" font-size="18" font-weight="700" fill="#9cb4ff" letter-spacing="2">VEIN SIZE</text>
    <text x="578" y="34" font-size="18" font-weight="700" fill="#ffe7a8" text-anchor="end">×20.00</text>
    <rect x="22" y="46" width="556" height="8" rx="4" fill="#0c1024"/>
    <rect x="22" y="46" width="540" height="8" rx="4" fill="#6e87b6"/>
    <circle cx="562" cy="50" r="10" fill="#ffe7a8" stroke="#3a1d05" stroke-width="2"/>

    <text x="22" y="86" font-size="18" font-weight="700" fill="#9cb4ff" letter-spacing="2">FREQUENCY</text>
    <text x="578" y="86" font-size="18" font-weight="700" fill="#ffe7a8" text-anchor="end">×20.00</text>
    <rect x="22" y="98" width="556" height="8" rx="4" fill="#0c1024"/>
    <rect x="22" y="98" width="540" height="8" rx="4" fill="#6e87b6"/>
    <circle cx="562" cy="102" r="10" fill="#ffe7a8" stroke="#3a1d05" stroke-width="2"/>
  </g>

  <!-- Footer tag -->
  <g text-anchor="middle">
    <text x="600" y="580" font-size="16" font-weight="700" fill="#7e95d6" letter-spacing="4">21 ORES · 5 PRESETS · CAVES · GEMS · V2 SIDEBAR UI</text>
    <text x="600" y="604" font-size="14" font-weight="600" fill="#5a73b4" letter-spacing="3">tModLoader 1.4.4+ · WorldConfigMod v0.1</text>
  </g>
</svg>
